<svg xmlns="http://www.w3.org/2000/svg" xmlns:xlink="http://www.w3.org/1999/xlink" width="500" zoomAndPan="magnify" viewBox="0 0 375 374.999991" height="500" preserveAspectRatio="xMidYMid meet" version="1.0"><defs><clipPath id="2cd6a0da01"><path d="M 75 0 L 300 0 C 341.421875 0 375 33.578125 375 75 L 375 300 C 375 341.421875 341.421875 375 300 375 L 75 375 C 33.578125 375 0 341.421875 0 300 L 0 75 C 0 33.578125 33.578125 0 75 0 Z M 75 0 " clip-rule="nonzero"/></clipPath></defs><g clip-path="url(#2cd6a0da01)"><rect x="-37.5" width="450" fill="#2c2c2c" y="-37.499999" height="449.999989" fill-opacity="1"/></g><path fill="#010101" d="M 94.496094 168.683594 C 85.492188 172.925781 61.652344 192.027344 57.0625 197.6875 C 52.292969 203.347656 50.878906 194.503906 55.824219 179.824219 C 59.707031 167.976562 69.597656 151.878906 86.199219 138.085938 C 95.910156 130.125 117.277344 118.632812 130.34375 111.910156 C 132.992188 110.492188 167.25 95.992188 197.796875 88.742188 C 200.449219 88.03125 194.621094 93.160156 193.738281 95.992188 C 189.144531 109.433594 97.496094 167.089844 97.496094 167.089844 Z M 223.578125 330.863281 C 225.167969 340.414062 223.757812 341.121094 213.867188 342.359375 C 203.980469 343.597656 196.738281 339.886719 194.089844 337.410156 C 191.441406 334.933594 190.914062 329.449219 193.5625 324.5 C 195.152344 321.3125 196.738281 320.253906 197.625 316.363281 C 198.507812 312.648438 199.210938 311.765625 199.917969 310.347656 C 200.625 309.109375 200.800781 307.871094 200.976562 299.207031 C 201.15625 290.539062 200.976562 274.269531 201.859375 267.371094 C 202.746094 260.296875 233.292969 270.554688 233.292969 270.554688 C 233.292969 270.554688 226.054688 288.59375 224.109375 293.015625 C 222.167969 297.4375 222.34375 305.925781 222.34375 307.695312 C 222.34375 309.464844 221.640625 313 221.109375 313.179688 C 220.578125 313.355469 222.875 317.953125 221.816406 320.605469 C 221.109375 323.082031 223.402344 329.449219 223.578125 330.863281 Z M 235.234375 60.441406 C 234.175781 53.722656 235.234375 40.457031 236.648438 38.335938 C 241.0625 32.320312 264.371094 31.613281 269.316406 38.6875 C 271.433594 41.871094 271.257812 49.300781 270.90625 54.074219 C 270.550781 58.851562 269.316406 69.109375 269.140625 72.46875 C 268.964844 74.945312 243.359375 78.835938 237.707031 72.113281 C 236.117188 70.347656 235.234375 60.441406 235.234375 60.441406 Z M 287.152344 313.707031 C 297.921875 321.492188 306.222656 322.90625 311.695312 325.734375 C 317.167969 328.566406 315.757812 334.050781 306.574219 335.640625 C 299.15625 337.054688 287.503906 334.226562 279.734375 334.226562 C 271.964844 334.226562 254.660156 335.109375 250.066406 331.925781 C 244.769531 328.214844 247.066406 321.3125 247.066406 321.3125 C 248.476562 317.425781 252.007812 308.757812 250.949219 301.683594 C 249.890625 294.609375 248.476562 290.71875 245.828125 284.171875 C 243.179688 277.628906 241.238281 261.535156 243.710938 260.652344 C 246.183594 259.765625 245.476562 260.652344 248.65625 261.359375 C 251.832031 262.066406 255.367188 263.125 262.253906 263.125 C 269.140625 263.125 276.730469 262.066406 279.382812 261.535156 C 282.03125 261.003906 284.148438 260.472656 283.265625 265.957031 C 282.382812 271.4375 279.734375 281.695312 279.558594 289.65625 C 279.382812 297.613281 279.382812 306.8125 279.910156 308.402344 C 280.441406 309.996094 284.324219 311.765625 287.152344 313.707031 Z M 287.152344 313.707031 " fill-opacity="1" fill-rule="nonzero"/><path fill="#8ac640" d="M 249.363281 78.128906 C 229.9375 94.929688 192.324219 99.527344 136.523438 121.105469 C 122.222656 126.589844 84.078125 143.039062 74.898438 160.191406 C 105.800781 142.332031 117.277344 166.914062 119.75 192.207031 C 122.042969 215.90625 133.875 228.285156 164.25 227.578125 C 195.503906 226.871094 205.039062 245.085938 213.691406 266.488281 C 230.46875 184.601562 257.308594 168.683594 274.613281 154.710938 C 311.34375 124.820312 266.136719 72.113281 249.363281 78.128906 Z M 249.363281 78.128906 " fill-opacity="1" fill-rule="nonzero"/><path fill="#8ac640" d="M 249.363281 78.128906 C 202.742188 94.398438 156.65625 98.46875 102.445312 131.894531 C 89.554688 139.855469 62.359375 157.894531 57.0625 192.382812 C 76.835938 170.449219 122.574219 142.859375 178.550781 125.351562 C 206.804688 116.507812 227.464844 110.671875 252.539062 100.945312 C 250.773438 89.625 250.773438 85.203125 249.363281 78.128906 Z M 249.363281 78.128906 " fill-opacity="1" fill-rule="nonzero"/><path fill="#010101" d="M 308.871094 175.050781 C 308.871094 175.050781 305.515625 186.546875 298.804688 190.261719 C 298.804688 190.261719 293.859375 192.027344 283.972656 186.546875 C 281.148438 184.953125 279.027344 179.472656 279.203125 177.703125 C 279.382812 173.457031 282.03125 171.511719 282.03125 171.511719 C 282.03125 171.511719 284.855469 166.738281 288.210938 166.914062 C 291.566406 167.089844 297.21875 167.621094 298.984375 166.027344 C 300.570312 164.261719 309.222656 169.210938 308.871094 175.050781 Z M 236.824219 63.800781 C 236.824219 63.800781 236.117188 72.824219 234.882812 78.480469 C 234.707031 79.542969 229.410156 80.074219 225.523438 81.667969 C 232.9375 102.890625 277.617188 102.710938 283.441406 92.277344 C 280.617188 90.332031 274.96875 87.324219 272.320312 86.265625 C 269.667969 85.203125 269.847656 85.378906 269.667969 80.429688 C 269.492188 75.476562 269.140625 66.277344 268.785156 63.800781 C 268.433594 61.328125 241.0625 61.328125 236.824219 63.800781 Z M 236.824219 63.800781 " fill-opacity="1" fill-rule="nonzero"/><path fill="#f0efef" d="M 238.589844 63.800781 C 238.589844 63.800781 238.589844 68.933594 238.058594 73.882812 C 237.882812 76.183594 237.707031 77.597656 237.355469 79.367188 C 237.179688 80.429688 243.359375 84.671875 245.125 94.046875 C 253.601562 112.96875 273.203125 103.597656 281.324219 94.578125 C 278.5 92.628906 273.90625 89.976562 268.609375 87.855469 C 265.960938 86.792969 267.199219 84.496094 267.019531 79.542969 C 266.84375 74.589844 266.136719 67.339844 265.785156 64.6875 C 265.429688 62.035156 242.828125 61.328125 238.589844 63.800781 Z M 238.589844 63.800781 " fill-opacity="1" fill-rule="nonzero"/><path fill="#010101" d="M 236.824219 63.800781 C 236.824219 63.800781 236.648438 66.988281 236.117188 70.699219 C 238.414062 73 241.414062 76.183594 243.710938 78.128906 C 245.300781 79.542969 249.183594 79.367188 252.71875 79.367188 C 255.894531 79.367188 258.722656 79.71875 259.957031 79.011719 C 262.785156 77.597656 266.84375 74.0625 269.140625 71.40625 C 268.964844 68.226562 268.789062 65.21875 268.613281 63.800781 C 268.433594 61.328125 241.0625 61.328125 236.824219 63.800781 Z M 236.824219 63.800781 " fill-opacity="1" fill-rule="nonzero"/><path fill="#010101" d="M 252.894531 77.242188 C 250.773438 77.242188 248.300781 77.066406 246.359375 76.714844 C 245.476562 76.539062 244.59375 76.007812 243.886719 75.652344 C 242.652344 74.769531 241.414062 73.707031 240.003906 72.644531 C 237.175781 70.523438 237 69.285156 237 68.753906 C 238.238281 57.613281 236.648438 48.238281 236.648438 48.238281 C 236.648438 48.238281 235.410156 43.464844 242.121094 42.226562 C 248.832031 40.988281 252.894531 40.8125 252.894531 40.8125 C 252.894531 40.8125 257.132812 40.8125 263.664062 42.226562 C 270.375 43.464844 269.136719 48.238281 269.136719 48.238281 C 269.136719 48.238281 267.550781 57.613281 268.785156 68.753906 C 268.785156 69.285156 268.609375 70.523438 265.785156 72.644531 C 263.3125 74.414062 261.367188 76.359375 259.425781 76.714844 C 257.484375 77.066406 255.011719 77.242188 252.894531 77.242188 Z M 252.894531 77.242188 " fill-opacity="1" fill-rule="nonzero"/><path fill="#010101" d="M 252.894531 36.210938 C 241.238281 36.210938 238.941406 39.394531 235.585938 42.933594 C 234.882812 43.816406 235.410156 49.125 236.648438 60.441406 L 238.238281 60.441406 C 238.238281 60.441406 237.175781 57.257812 237.355469 53.542969 C 237.53125 49.832031 238.238281 50.007812 237.707031 49.125 C 237 48.0625 235.585938 46.292969 238.765625 44.523438 C 241.945312 42.753906 246.890625 45.9375 252.894531 46.117188 C 258.898438 45.9375 264.019531 42.753906 267.195312 44.523438 C 270.375 46.292969 268.960938 48.0625 268.257812 49.125 C 267.550781 50.183594 268.433594 49.828125 268.609375 53.542969 C 268.785156 57.257812 267.726562 60.441406 267.726562 60.441406 L 269.316406 60.441406 C 270.375 49.125 271.082031 44.171875 270.550781 43.285156 C 267.550781 39.394531 264.546875 36.386719 252.894531 36.210938 Z M 308.871094 175.578125 C 308.871094 175.578125 305.515625 186.367188 298.980469 190.082031 C 297.570312 189.375 297.746094 188.3125 296.507812 186.722656 C 296.15625 186.191406 294.917969 185.835938 294.390625 185.308594 C 293.859375 184.777344 294.039062 183.890625 293.15625 183.183594 C 292.449219 182.476562 291.917969 183.007812 291.210938 182.476562 C 290.507812 181.769531 290.328125 180.886719 289.800781 180.355469 C 289.445312 180.003906 288.035156 179.824219 287.679688 179.472656 C 286.796875 178.585938 279.027344 176.996094 279.382812 175.226562 C 280.085938 172.574219 281.5 170.628906 281.5 170.628906 C 281.5 170.628906 284.855469 165.675781 288.210938 165.851562 C 291.566406 166.027344 294.742188 166.738281 296.507812 165.144531 C 298.453125 163.375 309.402344 169.921875 308.871094 175.578125 Z M 308.871094 175.578125 " fill-opacity="1" fill-rule="nonzero"/><path fill="#010101" d="M 285.914062 97.40625 C 285.914062 97.40625 297.039062 94.753906 304.632812 102.003906 C 312.226562 109.433594 311.695312 118.628906 309.402344 124.289062 C 311.34375 126.589844 314.875 132.957031 312.226562 140.5625 C 323.878906 150.464844 318.757812 165.675781 308.339844 175.757812 C 308.339844 175.757812 305.867188 166.558594 295.980469 166.027344 C 296.332031 162.492188 286.796875 159.660156 291.210938 150.464844 C 284.503906 148.875 284.679688 144.273438 283.621094 138.617188 C 282.738281 132.957031 285.914062 97.40625 285.914062 97.40625 Z M 285.914062 97.40625 " fill-opacity="1" fill-rule="nonzero"/><path fill="#f0efef" d="M 281.851562 102.359375 C 281.851562 102.359375 294.742188 95.816406 302.335938 103.242188 C 309.929688 110.671875 307.808594 118.808594 305.515625 124.46875 C 307.457031 126.765625 312.046875 133.3125 309.222656 141.089844 C 308.695312 142.859375 304.808594 142.859375 301.984375 147.457031 C 309.046875 143.390625 313.460938 144.453125 315.050781 149.578125 C 317.523438 157.539062 312.046875 167.089844 307.28125 172.394531 C 307.28125 172.21875 307.105469 172.042969 307.105469 171.863281 C 306.398438 174.519531 305.515625 179.648438 300.21875 185.304688 C 297.566406 188.136719 295.449219 187.78125 292.445312 187.074219 C 288.917969 186.191406 287.679688 184.597656 282.734375 181.945312 C 279.910156 180.355469 281.5 178.410156 281.5 176.816406 C 281.5 176.464844 281.851562 175.933594 282.382812 175.226562 C 282.734375 174.339844 283.796875 172.925781 285.382812 171.335938 C 285.382812 171.335938 287.679688 168.152344 291.035156 168.328125 C 294.390625 168.503906 297.921875 167.796875 298.804688 166.914062 C 298.804688 160.722656 291.742188 160.546875 294.214844 149.933594 C 294.390625 149.402344 295.273438 148.519531 298.097656 148.164062 C 293.859375 147.28125 291.917969 147.105469 288.917969 144.273438 C 286.796875 142.328125 285.207031 139.851562 284.675781 136.671875 C 283.617188 131.1875 281.851562 102.359375 281.851562 102.359375 Z M 281.851562 102.359375 " fill-opacity="1" fill-rule="nonzero"/><path fill="#010101" d="M 244.59375 91.21875 C 243.535156 89.800781 238.058594 82.726562 227.640625 79.898438 C 224.640625 79.011719 222.699219 81.488281 219.695312 83.257812 C 218.8125 82.726562 214.929688 80.957031 212.808594 82.195312 C 210.691406 83.433594 209.277344 84.671875 207.160156 85.554688 C 206.097656 85.027344 203.273438 85.027344 200.976562 85.910156 C 198.683594 86.617188 195.148438 88.210938 191.796875 92.808594 C 189.675781 100.414062 229.230469 94.753906 229.230469 94.753906 Z M 244.59375 91.21875 " fill-opacity="1" fill-rule="nonzero"/><path fill="#8ac640" d="M 244.949219 91.21875 C 239.296875 89.269531 240.179688 82.726562 227.640625 81.667969 C 225.167969 81.488281 223.578125 83.433594 221.8125 84.671875 C 222.699219 85.558594 223.578125 86.972656 224.109375 88.386719 C 222.519531 86.617188 219.695312 84.316406 216.867188 83.789062 C 214.21875 83.257812 212.453125 85.203125 209.628906 86.617188 C 210.15625 87.148438 210.6875 88.03125 211.394531 89.09375 C 208.921875 87.503906 207.15625 86.972656 203.800781 88.210938 C 201.503906 88.917969 197.089844 90.863281 193.734375 95.636719 C 191.617188 103.242188 229.40625 94.753906 229.40625 94.753906 Z M 244.949219 91.21875 " fill-opacity="1" fill-rule="nonzero"/><path fill="#010101" d="M 278.144531 94.046875 C 278.144531 94.046875 278.144531 92.101562 277.96875 90.332031 C 277.96875 89.980469 276.554688 89.09375 276.554688 88.742188 L 276.203125 88.386719 C 276.203125 88.386719 279.027344 86.796875 281.148438 87.679688 C 283.441406 88.386719 284.679688 91.394531 284.679688 91.394531 C 288.738281 89.980469 289.09375 91.570312 291.035156 93.691406 C 295.273438 92.808594 295.804688 94.398438 298.453125 98.292969 C 298.453125 98.292969 295.273438 97.761719 289.09375 98.820312 C 283.089844 99.707031 278.144531 93.871094 278.144531 94.046875 Z M 278.144531 94.046875 " fill-opacity="1" fill-rule="nonzero"/><path fill="#8ac640" d="M 277.4375 93.160156 C 277.4375 93.160156 278.496094 92.277344 278.144531 92.101562 C 280.085938 91.039062 282.734375 89.800781 283.972656 93.160156 C 288.035156 91.746094 288.5625 93.691406 290.503906 95.816406 C 295.449219 93.515625 295.800781 96.34375 296.15625 97.582031 C 294.566406 97.582031 292.273438 97.761719 289.09375 98.113281 C 283.089844 99 277.261719 92.984375 277.4375 93.160156 Z M 277.4375 93.160156 " fill-opacity="1" fill-rule="nonzero"/><path fill="#010101" d="M 217.398438 88.742188 C 217.398438 88.742188 227.464844 92.277344 235.941406 91.746094 C 244.417969 91.039062 258.898438 90.332031 266.667969 94.929688 C 266.667969 94.929688 274.613281 92.101562 282.03125 94.046875 C 289.449219 95.992188 303.042969 108.726562 298.984375 122.167969 C 298.628906 123.050781 296.332031 124.464844 293.683594 125.351562 C 293.683594 125.351562 295.097656 131.363281 292.625 136.316406 C 290.152344 141.089844 284.679688 150.289062 284.503906 163.023438 C 284.328125 165.144531 283.972656 169.566406 283.621094 171.6875 C 269.847656 171.160156 248.65625 166.027344 227.820312 166.382812 C 227.996094 164.085938 228.171875 162.667969 228.347656 160.371094 L 228.878906 160.371094 C 227.816406 154.53125 227.464844 151.527344 226.40625 147.105469 C 219.695312 142.859375 212.632812 137.910156 206.628906 128.535156 C 200.800781 119.160156 217.398438 88.742188 217.398438 88.742188 Z M 285.5625 184.246094 C 285.5625 184.246094 296.511719 223.511719 283.621094 239.957031 C 283.621094 239.957031 285.5625 247.5625 281.148438 255.699219 C 280.441406 259.234375 279.558594 262.417969 279.027344 265.957031 C 276.734375 280.636719 272.847656 286.824219 271.789062 310.347656 L 261.191406 310.171875 C 261.191406 310.171875 259.957031 293.195312 256.246094 284.171875 C 254.128906 279.046875 245.828125 272.148438 246.183594 265.25 C 246.535156 259.945312 247.597656 255.523438 256.601562 248.445312 C 257.308594 238.191406 247.066406 228.460938 248.65625 190.257812 Z M 285.5625 184.246094 " fill-opacity="1" fill-rule="nonzero"/><path fill="#f0efef" d="M 282.382812 182.652344 C 285.210938 200.695312 291.742188 227.398438 279.910156 240.488281 C 280.617188 243.835938 280.675781 247.195312 280.085938 250.566406 C 279.734375 252.691406 279.027344 254.988281 278.144531 257.464844 C 276.378906 261.710938 275.671875 267.902344 275.144531 271.613281 C 272.847656 286.292969 272.847656 287.003906 271.789062 310.523438 L 261.191406 310.347656 C 261.191406 310.347656 259.957031 293.367188 256.246094 284.351562 C 254.128906 279.21875 249.714844 274.800781 249.363281 267.902344 C 249.007812 262.597656 252.71875 251.984375 261.546875 252.339844 C 261.015625 230.9375 251.128906 235.183594 248.480469 190.613281 Z M 217.398438 88.742188 C 217.398438 88.742188 221.285156 89.980469 225.523438 90.332031 C 229.761719 90.683594 234.351562 90.332031 238.414062 90.15625 C 246.890625 89.449219 258.898438 88.5625 266.84375 93.160156 C 266.84375 93.160156 271.257812 91.746094 276.027344 92.101562 C 278.144531 92.277344 280.265625 94.046875 282.738281 94.753906 C 290.507812 96.699219 297.921875 109.609375 294.566406 121.28125 C 294.214844 122.167969 291.742188 121.28125 288.917969 122.167969 C 289.445312 124.644531 289.800781 130.304688 286.972656 136.316406 C 283.972656 142.332031 280.085938 150.113281 280.792969 164.96875 C 262.25 164.085938 253.953125 162.847656 235.585938 161.960938 C 233.996094 155.417969 232.9375 148.875 232.761719 145.515625 C 235.234375 144.277344 236.644531 143.214844 238.589844 141.09375 C 233.292969 141.976562 231.171875 141.621094 227.992188 139.855469 C 224.816406 138.085938 219.164062 132.425781 216.339844 128.710938 C 215.984375 128.359375 214.042969 134.195312 209.628906 134.371094 C 208.039062 132.074219 214.75 125.527344 213.515625 123.050781 C 209.101562 114.03125 217.398438 88.742188 217.398438 88.742188 Z M 217.398438 88.742188 " fill-opacity="1" fill-rule="nonzero"/><path fill="#010101" d="M 283.796875 167.972656 C 283.796875 167.972656 284.148438 174.339844 284.148438 175.933594 C 284.148438 177.703125 285.5625 183.007812 285.738281 185.484375 C 283.796875 188.84375 275.320312 196.449219 259.957031 199.277344 C 244.769531 202.460938 224.640625 178.585938 224.640625 178.585938 C 225.167969 176.289062 226.933594 169.566406 228.171875 166.027344 C 228.347656 165.675781 228.699219 164.789062 228.699219 164.4375 C 230.289062 162.136719 283.796875 167.972656 283.796875 167.972656 Z M 283.796875 167.972656 " fill-opacity="1" fill-rule="nonzero"/><path fill="#f0efef" d="M 279.910156 168.503906 C 279.910156 172.925781 280.617188 176.109375 281.148438 178.941406 C 282.03125 184.070312 283.441406 187.429688 283.441406 190.789062 C 283.441406 201.046875 270.023438 199.277344 258.71875 199.632812 C 243.535156 202.816406 230.644531 178.941406 230.644531 178.941406 C 231.703125 174.871094 232.410156 170.273438 233.996094 166.382812 C 234.175781 164.261719 234.527344 161.609375 234.703125 160.371094 C 256.246094 160.371094 271.433594 161.609375 280.261719 162.492188 C 280.617188 164.4375 280.265625 167.796875 279.910156 168.503906 Z M 279.910156 168.503906 " fill-opacity="1" fill-rule="nonzero"/><path fill="#010101" d="M 262.957031 191.320312 C 262.957031 191.320312 253.597656 170.449219 225.523438 176.640625 C 218.8125 195.566406 209.804688 217.320312 215.632812 240.84375 C 209.804688 248.800781 203.097656 253.222656 203.097656 267.902344 C 203.097656 282.582031 203.800781 285.058594 203.800781 285.058594 L 224.460938 286.121094 C 224.460938 286.121094 231.171875 277.453125 233.820312 268.082031 C 234.527344 265.425781 235.234375 260.652344 234.703125 255.167969 C 235.410156 254.109375 238.414062 251.632812 238.765625 246.855469 C 238.765625 246.855469 248.832031 241.550781 254.660156 228.640625 C 260.132812 216.964844 258.71875 206.882812 262.957031 191.320312 Z M 262.957031 191.320312 " fill-opacity="1" fill-rule="nonzero"/><path fill="#f0efef" d="M 262.957031 191.320312 C 262.429688 189.375 255.367188 170.273438 229.230469 175.933594 C 213.867188 216.964844 219.519531 233.945312 221.8125 241.371094 C 211.394531 254.636719 206.628906 257.464844 208.746094 284.351562 L 222.519531 284.351562 C 228.878906 274.269531 230.289062 270.554688 230.644531 257.289062 C 230.644531 256.757812 228.703125 258.351562 227.289062 260.121094 C 228.347656 254.636719 231.351562 253.574219 233.644531 250.214844 C 234.707031 248.800781 235.585938 246.679688 235.585938 243.847656 C 247.949219 235.535156 252.539062 225.101562 255.1875 214.3125 C 257.308594 206.882812 259.78125 194.679688 262.957031 191.320312 Z M 262.957031 191.320312 " fill-opacity="1" fill-rule="nonzero"/><path fill="#010101" d="M 219.34375 162.847656 C 219.34375 162.847656 224.109375 163.023438 228.347656 164.4375 C 232.410156 165.851562 232.410156 166.734375 234 168.503906 C 235.589844 170.273438 239.472656 172.925781 238.769531 175.578125 C 238.414062 176.996094 237.53125 177.347656 236.296875 178.585938 C 235.765625 179.117188 231.878906 183.363281 230.996094 183.890625 C 230.46875 184.246094 229.761719 184.777344 229.230469 185.128906 L 226.582031 186.898438 C 224.816406 187.785156 223.582031 188.3125 221.640625 188.136719 C 221.640625 188.136719 217.222656 187.960938 214.398438 184.953125 C 214.398438 184.953125 214.046875 183.539062 214.75 182.832031 C 214.75 182.832031 211.042969 179.648438 209.984375 177.527344 C 208.921875 175.402344 208.921875 172.398438 209.628906 170.804688 C 209.984375 169.210938 216.871094 164.789062 219.34375 162.847656 Z M 223.757812 334.933594 L 223.226562 339.355469 C 223.226562 339.355469 221.640625 341.300781 209.808594 341.125 C 197.800781 340.945312 194.621094 337.234375 193.5625 335.289062 L 192.855469 330.6875 C 192.855469 330.6875 195.152344 327.328125 195.683594 327.328125 C 199.566406 327.683594 212.8125 332.988281 221.992188 334.402344 C 222.875 334.402344 223.050781 334.753906 223.757812 334.933594 Z M 249.363281 325.914062 C 249.363281 327.859375 249.183594 327.859375 249.183594 329.804688 C 251.304688 331.394531 256.601562 332.28125 266.667969 332.101562 C 281.324219 331.75 294.921875 336.523438 311.519531 333.695312 L 311.695312 330.511719 L 310.105469 330.335938 L 251.304688 325.558594 Z M 249.363281 325.914062 " fill-opacity="1" fill-rule="nonzero"/><path fill="#010101" d="M 262.253906 332.101562 L 266.667969 332.101562 C 276.203125 331.75 285.210938 333.871094 294.921875 334.402344 C 300.042969 334.226562 306.398438 332.988281 305.867188 329.273438 L 255.71875 325.027344 C 252.71875 328.386719 255.011719 331.21875 262.253906 332.101562 Z M 204.6875 257.644531 C 206.273438 258.707031 217.046875 265.074219 234.527344 264.1875 C 234.175781 267.546875 234.351562 274.09375 226.582031 285.589844 C 222.699219 291.246094 219.339844 301.152344 218.636719 313.710938 C 218.8125 316.539062 220.402344 319.015625 218.28125 322.730469 C 218.988281 325.027344 221.8125 329.625 223.226562 332.457031 C 224.640625 335.289062 225.347656 338.46875 215.984375 338.648438 C 206.449219 338.824219 191.085938 337.761719 193.207031 330.335938 C 194.269531 326.445312 197.269531 322.375 197.621094 320.785156 C 197.976562 319.191406 197.976562 314.417969 200.976562 311.234375 C 203.625 302.390625 202.742188 293.902344 202.214844 285.941406 C 201.332031 277.628906 201.152344 264.363281 204.6875 257.644531 Z M 221.109375 113.5 C 233.644531 96.699219 223.050781 83.257812 202.921875 87.324219 C 194.796875 88.917969 186.675781 94.578125 186.144531 104.835938 C 183.496094 105.1875 177.492188 105.542969 174.488281 116.507812 C 172.195312 124.996094 170.960938 126.589844 166.898438 130.832031 C 164.25 133.839844 167.074219 140.03125 169.015625 144.453125 C 175.550781 159.660156 195.679688 161.078125 209.277344 172.574219 C 213.867188 171.335938 218.636719 166.207031 220.046875 162.847656 C 208.570312 149.226562 211.042969 143.921875 206.449219 136.847656 C 211.394531 135.078125 222.699219 128.179688 221.109375 113.5 Z M 221.109375 113.5 " fill-opacity="1" fill-rule="nonzero"/><path fill="#f0efef" d="M 218.636719 112.441406 C 219.339844 111.378906 220.578125 109.078125 221.109375 108.195312 C 221.285156 108.019531 223.226562 111.378906 223.402344 111.203125 C 228.171875 103.417969 229.40625 92.101562 223.933594 91.039062 C 222.695312 90.863281 220.402344 90.332031 218.457031 89.625 C 214.929688 88.386719 211.75 88.386719 206.097656 89.445312 C 198.328125 90.863281 190.558594 96.519531 190.558594 104.65625 C 190.558594 105.1875 196.03125 106.78125 197.621094 113.324219 C 194.972656 109.609375 190.382812 105.542969 184.90625 109.078125 C 179.078125 112.792969 182.082031 121.28125 174.3125 130.125 C 171.664062 133.132812 172.015625 136.667969 174.839844 143.742188 C 179.433594 154.886719 201.152344 160.898438 212.984375 171.511719 C 215.808594 170.273438 217.75 167.441406 219.164062 165.320312 C 211.21875 157.007812 208.039062 149.226562 205.746094 143.566406 C 202.917969 137.023438 199.738281 133.308594 193.558594 128.355469 C 196.738281 129.59375 199.210938 130.832031 200.621094 131.894531 C 202.210938 132.953125 204.507812 133.128906 206.625 132.421875 C 214.222656 129.773438 218.28125 119.160156 218.636719 112.441406 Z M 218.636719 112.441406 " fill-opacity="1" fill-rule="nonzero"/><path fill="#010101" d="M 295.449219 115.269531 C 294.921875 121.992188 289.976562 118.628906 287.328125 117.390625 C 282.03125 115.09375 276.730469 113.5 270.550781 113.5 C 264.371094 113.5 256.425781 114.03125 249.539062 115.800781 C 240.003906 118.453125 237.175781 118.277344 232.9375 116.152344 C 228.703125 113.855469 221.285156 108.195312 221.285156 108.195312 C 221.285156 108.195312 221.109375 109.964844 222.875 112.261719 C 225.167969 115.09375 230.292969 118.628906 237.179688 120.929688 C 240.53125 121.992188 243.183594 121.28125 246.183594 120.574219 C 261.902344 116.683594 278.5 115.976562 292.449219 124.464844 C 293.15625 124.820312 295.628906 123.757812 296.6875 122.167969 C 298.097656 119.867188 295.449219 115.269531 295.449219 115.269531 Z M 295.449219 115.269531 " fill-opacity="1" fill-rule="nonzero"/><path fill="#0a1825" d="M 215.105469 182.652344 C 216.515625 183.539062 218.28125 184.070312 220.226562 185.660156 C 220.226562 185.660156 218.636719 185.660156 217.929688 184.953125 C 217.046875 184.421875 215.28125 182.832031 215.105469 182.652344 Z M 215.105469 182.652344 " fill-opacity="1" fill-rule="nonzero"/><path fill="#f0efef" d="M 266.136719 42.402344 C 265.609375 40.8125 261.722656 37.980469 252.71875 37.980469 C 243.003906 37.980469 240.179688 40.988281 240.003906 42.578125 C 240.003906 43.109375 239.296875 48.769531 239.121094 51.066406 C 239.121094 51.066406 239.121094 53.898438 239.296875 58.140625 C 239.472656 60.972656 240.179688 62.5625 240.53125 66.277344 C 240.886719 70.167969 241.945312 72.644531 243.886719 75.828125 C 244.769531 76.359375 245.476562 76.890625 246.359375 77.066406 C 249.890625 77.773438 256.070312 77.949219 259.425781 77.066406 C 261.367188 76.535156 263.839844 73.175781 264.371094 70.167969 C 265.078125 66.457031 265.785156 63.800781 265.960938 61.503906 C 266.3125 59.203125 266.488281 54.074219 266.664062 52.660156 C 267.195312 48.769531 266.3125 42.753906 266.136719 42.402344 Z M 266.136719 42.402344 " fill-opacity="1" fill-rule="nonzero"/><path fill="#010101" d="M 247.597656 261.003906 C 247.597656 261.003906 256.957031 265.074219 280.089844 261.535156 C 280.089844 261.535156 273.554688 294.429688 276.558594 310.878906 C 276.558594 310.878906 279.558594 315.125 301.808594 323.257812 C 301.808594 323.257812 311.695312 325.734375 311.34375 330.6875 C 311.34375 330.6875 311.695312 331.75 299.691406 331.394531 C 287.683594 331.042969 276.378906 328.917969 268.433594 328.917969 C 260.488281 328.917969 252.011719 329.273438 250.597656 326.972656 C 249.011719 324.851562 250.953125 319.367188 253.246094 316.183594 C 255.722656 312.824219 255.011719 310.347656 254.835938 304.335938 C 254.304688 288.59375 242.296875 272.324219 247.597656 261.003906 Z M 247.597656 261.003906 " fill-opacity="1" fill-rule="nonzero"/><path fill="#8ac640" d="M 245.652344 264.011719 C 244.417969 265.78125 245.828125 272.5 247.59375 279.042969 C 249.359375 285.589844 253.246094 289.480469 254.128906 300.265625 C 255.011719 310.878906 255.1875 312.292969 252.1875 318.484375 C 249.183594 324.671875 248.300781 330.332031 258.71875 330.511719 C 269.136719 330.6875 274.789062 330.332031 285.382812 331.925781 C 295.980469 333.515625 299.6875 334.046875 305.515625 333.164062 C 311.34375 332.28125 312.578125 330.332031 310.105469 328.566406 C 307.632812 326.796875 297.390625 324.851562 292.976562 321.3125 C 288.738281 318.128906 276.730469 312.824219 276.554688 311.410156 C 276.027344 306.632812 275.847656 289.300781 276.730469 283.640625 C 277.617188 277.980469 278.851562 269.847656 279.203125 267.722656 C 279.558594 265.601562 281.324219 263.480469 278.320312 264.1875 C 275.320312 264.894531 264.019531 266.484375 255.542969 265.957031 C 247.066406 265.425781 246.183594 263.480469 245.652344 264.011719 Z M 245.652344 264.011719 " fill-opacity="1" fill-rule="nonzero"/><path fill="#010101" d="M 251.65625 318.660156 C 254.660156 320.078125 259.074219 321.136719 262.429688 321.136719 C 262.429688 321.136719 261.191406 326.976562 263.136719 330.511719 C 265.078125 334.050781 249.007812 331.925781 249.007812 331.925781 L 248.300781 319.371094 Z M 298.453125 333.871094 C 301.277344 332.988281 303.21875 329.804688 300.925781 326.796875 C 298.453125 323.789062 296.332031 323.261719 299.511719 323.085938 C 302.691406 322.90625 314.34375 329.980469 314.34375 329.980469 L 308.339844 335.464844 Z M 245.125 270.910156 C 249.183594 272.324219 255.367188 272.675781 260.664062 272.5 C 265.960938 272.324219 273.90625 271.613281 279.027344 269.847656 C 284.148438 268.078125 282.03125 271.792969 282.03125 271.792969 L 279.203125 274.445312 C 279.203125 274.445312 272.496094 277.097656 261.546875 276.921875 C 248.65625 276.746094 244.769531 275.332031 244.769531 275.332031 Z M 245.476562 279.753906 C 249.539062 281.167969 255.71875 281.519531 261.015625 281.34375 C 266.3125 281.167969 273.378906 281.167969 278.496094 279.222656 C 280.617188 278.515625 279.382812 281.519531 279.382812 281.519531 L 278.496094 283.113281 C 278.496094 283.113281 271.609375 285.589844 260.839844 285.410156 C 247.949219 285.234375 245.652344 284.171875 245.652344 284.171875 Z M 245.476562 279.753906 " fill-opacity="0.3" fill-rule="nonzero"/><path fill="#010101" d="M 233.820312 155.773438 C 233.820312 157.011719 247.597656 163.90625 255.1875 165.324219 C 262.78125 166.738281 278.675781 165.324219 281.148438 164.792969 L 280.792969 167.269531 C 280.792969 167.269531 261.898438 170.097656 247.417969 166.207031 C 232.9375 162.316406 234.527344 161.429688 234.527344 161.429688 Z M 233.820312 155.773438 " fill-opacity="1" fill-rule="nonzero"/><path fill="#f0efef" d="M 204.332031 306.636719 C 206.449219 307.695312 214.042969 309.640625 218.988281 308.582031 C 219.695312 308.402344 218.988281 296.375 220.929688 290.894531 C 223.757812 283.289062 228.347656 277.097656 230.464844 263.65625 C 223.050781 262.949219 214.574219 261.003906 210.160156 259.589844 C 204.507812 276.921875 206.453125 291.777344 204.332031 306.636719 Z M 216.164062 317.777344 C 217.398438 318.132812 218.28125 319.546875 218.636719 318.664062 C 219.34375 317.070312 217.398438 314.0625 217.222656 311.941406 L 217.222656 311.765625 C 215.632812 310.351562 204.863281 310.171875 205.570312 310.878906 C 204.332031 313.179688 202.390625 312.824219 201.683594 317.425781 C 201.332031 319.722656 204.15625 317.777344 206.804688 317.601562 C 202.039062 320.785156 196.5625 324.851562 195.679688 328.390625 C 194.621094 333.339844 196.386719 334.757812 201.683594 337.410156 C 206.277344 338.472656 211.75 338.648438 215.988281 338.472656 C 220.757812 337.585938 221.640625 335.289062 220.226562 332.105469 C 218.105469 327.328125 216.695312 321.136719 216.164062 317.777344 Z M 216.164062 317.777344 " fill-opacity="1" fill-rule="nonzero"/><path fill="#010101" d="M 218.105469 88.03125 C 223.933594 91.394531 232.058594 90.507812 235.058594 90.332031 C 235.765625 90.332031 242.828125 89.09375 243.179688 89.269531 C 243.886719 89.445312 243.886719 89.976562 243.886719 89.976562 C 243.886719 89.976562 241.238281 91.390625 235.234375 91.746094 C 229.585938 92.097656 222.875 91.746094 219.167969 89.976562 C 214.75 88.03125 218.105469 88.03125 218.105469 88.03125 Z M 278.144531 91.394531 C 279.203125 92.101562 286.089844 94.753906 289.09375 97.9375 C 291.742188 100.765625 290.328125 100.589844 289.800781 99.882812 C 289.09375 98.996094 283.617188 95.285156 281.5 94.398438 C 279.382812 93.515625 276.730469 91.921875 276.730469 91.570312 C 276.730469 91.21875 278.144531 91.394531 278.144531 91.394531 Z M 278.144531 91.394531 " fill-opacity="1" fill-rule="nonzero"/><path fill="#f0efef" d="M 217.222656 164.789062 C 222.34375 164.4375 227.640625 165.675781 230.996094 169.210938 C 232.761719 170.980469 235.585938 172.925781 235.234375 174.695312 C 235.234375 175.226562 234.175781 176.640625 233.292969 177.703125 C 232.761719 178.410156 231.175781 180 230.644531 180.53125 C 229.9375 181.0625 227.464844 183.007812 226.9375 183.363281 C 226.40625 183.714844 225.699219 184.601562 225.167969 184.777344 C 223.40625 185.660156 221.460938 184.953125 219.695312 184.070312 C 217.929688 183.183594 220.050781 183.007812 218.105469 181.59375 C 213.339844 178.234375 210.691406 175.933594 212.632812 169.390625 C 212.808594 168.152344 214.75 166.734375 217.222656 164.789062 Z M 217.222656 164.789062 " fill-opacity="1" fill-rule="nonzero"/><path fill="#010101" d="M 172.195312 124.289062 C 156.300781 130.65625 115.863281 150.820312 104.386719 157.011719 C 113.921875 163.023438 118.335938 177.527344 119.75 192.207031 C 119.925781 193.621094 120.101562 194.859375 120.277344 196.273438 C 120.453125 197.511719 120.632812 198.394531 120.808594 198.925781 C 120.808594 199.105469 120.808594 199.457031 120.984375 199.632812 C 131.402344 171.160156 168.660156 141.09375 170.074219 138.792969 C 170.78125 137.730469 169.191406 133.132812 171.664062 128.710938 C 174.84375 123.050781 181.023438 120.574219 172.195312 124.289062 Z M 209.984375 257.820312 C 218.105469 241.550781 218.28125 225.984375 218.105469 207.769531 C 218.105469 200.164062 223.578125 189.375 220.753906 192.382812 C 210.160156 204.230469 183.496094 226.515625 164.25 227.753906 C 191.265625 226.871094 201.859375 240.488281 209.984375 257.820312 Z M 209.984375 257.820312 " fill-opacity="0.4" fill-rule="nonzero"/><path fill="#010101" d="M 88.847656 172.042969 C 98.910156 164.789062 151.003906 137.023438 163.542969 133.132812 C 176.078125 129.066406 172.195312 124.289062 172.195312 124.289062 C 172.195312 124.289062 121.335938 146.21875 90.964844 165.144531 " fill-opacity="1" fill-rule="nonzero"/><path fill="#010101" d="M 237.175781 120.929688 C 233.117188 119.335938 229.9375 124.113281 230.996094 128.710938 C 232.058594 133.3125 241.59375 138.4375 241.0625 155.242188 C 240.707031 169.035156 237.707031 174.695312 237.707031 174.695312 L 230.996094 166.207031 C 230.996094 166.207031 229.9375 147.105469 227.640625 144.277344 C 225.347656 141.445312 218.105469 136.316406 215.28125 133.664062 C 212.457031 131.011719 218.457031 127.472656 218.105469 122.519531 C 217.753906 117.746094 221.109375 108.195312 221.109375 108.195312 Z M 261.722656 196.273438 C 261.371094 209.535156 264.371094 229.167969 265.609375 238.542969 C 266.84375 247.917969 268.433594 248.625 265.609375 252.871094 C 262.78125 256.9375 259.074219 263.65625 259.074219 263.65625 L 246.890625 262.597656 C 246.890625 262.597656 256.601562 250.214844 257.128906 247.917969 C 257.660156 245.617188 252.1875 228.109375 252.1875 228.109375 Z M 238.238281 72.46875 C 240.710938 77.949219 243.710938 80.425781 248.476562 82.019531 C 251.304688 83.082031 262.429688 84.496094 266.84375 79.542969 C 268.785156 77.242188 267.550781 71.054688 267.550781 71.054688 L 257.484375 79.1875 L 243.886719 76.714844 L 242.296875 72.644531 Z M 238.238281 72.46875 " fill-opacity="0.4" fill-rule="nonzero"/><path stroke-linecap="butt" transform="matrix(0.866942, 0, 0, 0.868306, 52.734207, 33.602129)" fill-opacity="1" fill="#8ac640" fill-rule="nonzero" stroke-linejoin="round" d="M 215.196284 58.815391 C 220.490577 62.279393 233.733066 65.536454 237.396266 66.148277 C 241.063972 66.962543 246.97105 62.279393 249.82321 61.055745 C 252.878129 59.629657 258.172421 58.815391 264.28226 64.317305 C 264.895046 64.929129 262.858434 67.574366 262.858434 67.574366 C 262.655673 67.371924 261.430101 67.371924 259.803514 66.557659 C 258.172421 65.743394 256.748595 65.13157 254.301956 65.334012 C 244.118891 66.557659 242.487799 70.017162 233.525801 67.979249 C 224.563802 65.941337 222.324429 64.312806 213.565192 64.722188 " stroke="#010101" stroke-width="1.586" stroke-opacity="1" stroke-miterlimit="10"/><path fill="#8ac640" d="M 237.707031 85.203125 C 243.535156 87.679688 254.835938 90.332031 258.015625 91.039062 C 261.191406 91.746094 266.3125 88.5625 268.785156 86.972656 C 273.199219 84.140625 278.851562 86.441406 281.5 89.449219 C 283.265625 91.394531 283.972656 92.632812 283.972656 93.160156 C 283.972656 93.867188 281.855469 93.160156 281.855469 93.160156 C 280.617188 92.632812 279.203125 92.453125 278.144531 91.746094 C 276.734375 91.039062 275.320312 89.980469 273.203125 90.15625 C 264.371094 91.21875 262.605469 94.222656 255.011719 92.453125 C 247.421875 90.683594 245.476562 89.09375 237.355469 89.625 " fill-opacity="1" fill-rule="nonzero"/><path fill="#010101" d="M 210.335938 250.390625 C 209.984375 250.039062 210.6875 249.683594 210.335938 249.683594 C 208.042969 249.683594 204.863281 247.917969 203.097656 245.441406 C 195.503906 234.476562 184.378906 227.222656 164.246094 227.753906 C 134.050781 228.460938 122.042969 216.082031 119.746094 192.382812 C 118.511719 179.472656 114.980469 166.914062 107.738281 159.839844 L 103.5 162.492188 C 111.625 169.566406 114.273438 181.0625 116.039062 196.804688 C 118.863281 220.503906 137.933594 231.46875 160.1875 231.824219 C 183.316406 232.175781 191.617188 236.953125 200.269531 248.625 C 203.09375 252.339844 206.273438 253.578125 208.746094 254.109375 Z M 210.335938 250.390625 " fill-opacity="1" fill-rule="nonzero"/><path fill="#010101" d="M 292.273438 136.671875 C 292.800781 139.324219 294.214844 144.453125 297.039062 146.925781 C 298.277344 148.164062 298.453125 148.519531 297.394531 148.519531 C 296.332031 148.519531 288.5625 148.164062 288.5625 148.164062 L 286.445312 144.453125 Z M 292.273438 136.671875 " fill-opacity="0.4" fill-rule="nonzero"/></svg>